<svg width="42" height="42" viewBox="0 0 42 42" fill="none" xmlns="http://www.w3.org/2000/svg">
<g clip-path="url(#clip0_244_222)">
<path d="M18.9166 31.4166H23.0833V18.9166H18.9166V31.4166ZM21 14.75C21.5902 14.75 22.0854 14.55 22.4854 14.15C22.8854 13.75 23.0847 13.2555 23.0833 12.6666C23.0819 12.0777 22.8819 11.5833 22.4833 11.1833C22.0847 10.7833 21.5902 10.5833 21 10.5833C20.4097 10.5833 19.9152 10.7833 19.5166 11.1833C19.118 11.5833 18.918 12.0777 18.9166 12.6666C18.9152 13.2555 19.1152 13.7507 19.5166 14.152C19.918 14.5534 20.4125 14.7527 21 14.75ZM21 41.8333C18.118 41.8333 15.4097 41.2861 12.875 40.1916C10.3402 39.0972 8.13538 37.6132 6.26038 35.7395C4.38538 33.8659 2.90135 31.6611 1.8083 29.125C0.71524 26.5888 0.168018 23.8805 0.166629 21C0.16524 18.1194 0.712462 15.4111 1.8083 12.875C2.90413 10.3388 4.38816 8.13399 6.26038 6.26038C8.1326 4.38677 10.3375 2.90274 12.875 1.80829C15.4125 0.713848 18.1208 0.166626 21 0.166626C23.8791 0.166626 26.5875 0.713848 29.125 1.80829C31.6625 2.90274 33.8673 4.38677 35.7395 6.26038C37.6118 8.13399 39.0965 10.3388 40.1937 12.875C41.2909 15.4111 41.8375 18.1194 41.8333 21C41.8291 23.8805 41.2819 26.5888 40.1916 29.125C39.1014 31.6611 37.6173 33.8659 35.7395 35.7395C33.8618 37.6132 31.6569 39.0979 29.125 40.1937C26.593 41.2895 23.8847 41.8361 21 41.8333ZM21 37.6666C25.6527 37.6666 29.5937 36.052 32.8229 32.8229C36.052 29.5937 37.6666 25.6527 37.6666 21C37.6666 16.3472 36.052 12.4062 32.8229 9.17704C29.5937 5.94788 25.6527 4.33329 21 4.33329C16.3472 4.33329 12.4062 5.94788 9.17704 9.17704C5.94788 12.4062 4.33329 16.3472 4.33329 21C4.33329 25.6527 5.94788 29.5937 9.17704 32.8229C12.4062 36.052 16.3472 37.6666 21 37.6666Z" fill="white"/>
</g>
<defs>
<clipPath id="clip0_244_222">
<rect width="42" height="42" fill="white"/>
</clipPath>
</defs>
</svg>
