<svg width="31" height="33" viewBox="0 0 31 33" fill="none" xmlns="http://www.w3.org/2000/svg">
<path d="M0 3H16.0417V12H26.25L29.1667 11.1463V32.1667H0V3ZM2.91667 5.91667V29.25H5.83333V20.5H23.3333V29.25H26.25L26.25 12H16.0417L5.83333 12L5.83333 5.91667H2.91667ZM8.75 5.91667V8.83333H13.125V5.91667H8.75ZM20.4167 29.25V23.4167H8.75V29.25H20.4167Z" fill="#FEFEFE"/>
<path d="M31 5.05556L25.9444 0V2.88889C20.8889 3.61111 18.7222 7.22222 18 10.8333C19.8056 8.30556 22.3333 7.15 25.9444 7.15V10.1111L31 5.05556Z" fill="white"/>
</svg>
