<svg width="35" height="35" viewBox="0 0 35 35" fill="none" xmlns="http://www.w3.org/2000/svg">
<path d="M32.7188 13.8438H31.2422L27.4441 5.29883C27.2723 4.91222 26.992 4.58376 26.6372 4.35323C26.2824 4.1227 25.8684 4.00001 25.4453 4H9.36719C8.9441 4.00001 8.53009 4.1227 8.17532 4.35323C7.82055 4.58376 7.54024 4.91222 7.36836 5.29883L3.57031 13.8438H2.09375C1.80367 13.8438 1.52547 13.959 1.32035 14.1641C1.11523 14.3692 1 14.6474 1 14.9375C1 15.2276 1.11523 15.5058 1.32035 15.7109C1.52547 15.916 1.80367 16.0312 2.09375 16.0312H3.1875V26.9688C3.1875 27.5489 3.41797 28.1053 3.8282 28.5155C4.23844 28.9258 4.79484 29.1562 5.375 29.1562H8.65625C9.23641 29.1562 9.79281 28.9258 10.203 28.5155C10.6133 28.1053 10.8438 27.5489 10.8438 26.9688V25.875H23.9688V26.9688C23.9688 27.5489 24.1992 28.1053 24.6095 28.5155C25.0197 28.9258 25.5761 29.1562 26.1562 29.1562H29.4375C30.0177 29.1562 30.5741 28.9258 30.9843 28.5155C31.3945 28.1053 31.625 27.5489 31.625 26.9688V16.0312H32.7188C33.0088 16.0312 33.287 15.916 33.4921 15.7109C33.6973 15.5058 33.8125 15.2276 33.8125 14.9375C33.8125 14.6474 33.6973 14.3692 33.4921 14.1641C33.287 13.959 33.0088 13.8438 32.7188 13.8438ZM10.8438 20.4062H7.5625C7.27242 20.4062 6.99422 20.291 6.7891 20.0859C6.58398 19.8808 6.46875 19.6026 6.46875 19.3125C6.46875 19.0224 6.58398 18.7442 6.7891 18.5391C6.99422 18.334 7.27242 18.2188 7.5625 18.2188H10.8438C11.1338 18.2188 11.412 18.334 11.6171 18.5391C11.8223 18.7442 11.9375 19.0224 11.9375 19.3125C11.9375 19.6026 11.8223 19.8808 11.6171 20.0859C11.412 20.291 11.1338 20.4062 10.8438 20.4062ZM27.25 20.4062H23.9688C23.6787 20.4062 23.4005 20.291 23.1954 20.0859C22.9902 19.8808 22.875 19.6026 22.875 19.3125C22.875 19.0224 22.9902 18.7442 23.1954 18.5391C23.4005 18.334 23.6787 18.2188 23.9688 18.2188H27.25C27.5401 18.2188 27.8183 18.334 28.0234 18.5391C28.2285 18.7442 28.3438 19.0224 28.3438 19.3125C28.3438 19.6026 28.2285 19.8808 28.0234 20.0859C27.8183 20.291 27.5401 20.4062 27.25 20.4062ZM5.96426 13.8438L9.36719 6.1875H25.4453L28.8482 13.8438H5.96426Z" fill="white"/>
</svg>
