<svg width="26" height="26" viewBox="0 0 26 26" fill="none" xmlns="http://www.w3.org/2000/svg">
<circle cx="13" cy="13" r="13" fill="white"/>
<path d="M13 6C7.344 6 3 8.906 3 12.812C3 16.562 7.219 19.624 13 19.624C18.781 19.624 23 16.562 23 12.812C23 8.937 18.656 6 13 6ZM17.375 7.531C18.438 7.937 19.125 8.468 19.25 8.937C19.469 9.781 18.469 10.812 15.344 11.156C15.125 9.031 14.5 7.218 13.438 6.843C14.7778 6.86982 16.1055 7.10185 17.375 7.531ZM14.469 11.25C14.031 11.25 13.531 11.281 13 11.281C12.5 11.281 12.031 11.281 11.531 11.25C11.781 9.468 12.406 8.437 13 8.437C13.594 8.437 14.25 9.468 14.469 11.25ZM6.75 8.937C6.875 8.5 7.531 7.968 8.625 7.562C9.89294 7.12279 11.2207 6.88031 12.562 6.843C11.5 7.218 10.875 9.031 10.656 11.156C7.531 10.812 6.562 9.75 6.75 8.937ZM4.469 12.562C4.46816 11.4792 4.84356 10.4297 5.531 9.593C5.625 11.124 7.688 12.25 10.594 12.656V12.781C10.594 16.437 11.531 18.406 12.562 18.781C8.125 18.624 4.469 15.874 4.469 12.562ZM11.438 12.781V12.75C11.969 12.781 12.5 12.812 13 12.812C13.531 12.812 14.062 12.812 14.562 12.781C14.562 15.5 13.75 16.624 13 16.624C12.25 16.624 11.438 15.5 11.438 12.781ZM13.406 18.812C14.469 18.406 15.406 16.312 15.406 12.781V12.656C18.344 12.25 20.406 11.124 20.469 9.593C21.1564 10.4297 21.5318 11.4792 21.531 12.562C21.531 15.874 17.875 18.656 13.406 18.812Z" fill="#282830"/>
</svg>
