<svg width="35" height="35" viewBox="0 0 35 35" fill="none" xmlns="http://www.w3.org/2000/svg">
<g clip-path="url(#clip0_23_654)">
<path fill-rule="evenodd" clip-rule="evenodd" d="M17.5 2.91667C25.5544 2.91667 32.0833 9.44563 32.0833 17.5C32.0833 25.5544 25.5544 32.0833 17.5 32.0833C9.44563 32.0833 2.91667 25.5544 2.91667 17.5C2.91667 9.44563 9.44563 2.91667 17.5 2.91667ZM6.1323 20.1396C6.64265 22.3306 7.7748 24.3275 9.39271 25.8906C11.0106 27.4537 13.0455 28.5163 15.2527 28.9508C14.9713 25.1227 13.7127 22.8258 12.1231 21.5556C10.6006 20.3379 8.53563 19.8669 6.1323 20.1381V20.1396ZM22.8769 21.5542C21.2873 22.8273 20.0288 25.1227 19.7473 28.9508C21.9547 28.5162 23.9897 27.4534 25.6076 25.89C27.2256 24.3267 28.3576 22.3294 28.8677 20.1381C26.4644 19.8669 24.3994 20.3379 22.8769 21.5556V21.5542ZM17.5 5.83333C14.7819 5.8337 12.1492 6.78274 10.0561 8.51673C7.96293 10.2507 6.54064 12.6609 6.03459 15.3315L5.97188 15.6931L9.1948 15.0485C10.0435 14.8794 10.85 14.4317 11.7513 13.8235L12.4469 13.3394C13.6092 12.514 15.3315 11.6667 17.5 11.6667C19.5242 11.6667 21.159 12.4046 22.3125 13.1746L23.2488 13.8235C24.0363 14.3558 24.7538 14.7642 25.4888 14.9727L25.8052 15.0485L29.0281 15.6931C28.5968 12.9455 27.1983 10.4423 25.0847 8.63456C22.971 6.82681 20.2813 5.8334 17.5 5.83333Z" fill="#FEFEFE"/>
</g>
<defs>
<clipPath id="clip0_23_654">
<rect width="35" height="35" fill="white"/>
</clipPath>
</defs>
</svg>
